<?xml version="1.0" encoding="UTF-8" standalone="no"?>
<!-- Created with Inkscape (http://www.inkscape.org/) -->

<svg
   xmlns:dc="http://purl.org/dc/elements/1.1/"
   xmlns:cc="http://creativecommons.org/ns#"
   xmlns:rdf="http://www.w3.org/1999/02/22-rdf-syntax-ns#"
   xmlns:svg="http://www.w3.org/2000/svg"
   xmlns="http://www.w3.org/2000/svg"
   xmlns:sodipodi="http://sodipodi.sourceforge.net/DTD/sodipodi-0.dtd"
   xmlns:inkscape="http://www.inkscape.org/namespaces/inkscape"
   id="svg2"
   version="1.1"
   inkscape:version="0.91 r13725"
   xml:space="preserve"
   width="1000"
   height="1000"
   viewBox="0 0 1000 1000"
   sodipodi:docname="16750-NR2P32.svg"><metadata
     id="metadata8"><rdf:RDF><cc:Work
         rdf:about=""><dc:format>image/svg+xml</dc:format><dc:type
           rdf:resource="http://purl.org/dc/dcmitype/StillImage" /><dc:title /></cc:Work></rdf:RDF></metadata><defs
     id="defs6"><clipPath
       clipPathUnits="userSpaceOnUse"
       id="clipPath16"><path
         d="M 0,800 800,800 800,0 0,0 0,800 Z"
         id="path18"
         inkscape:connector-curvature="0" /></clipPath><clipPath
       clipPathUnits="userSpaceOnUse"
       id="clipPath24"><path
         d="M 0,800 800,800 800,0 0,0 0,800 Z"
         id="path26"
         inkscape:connector-curvature="0" /></clipPath><radialGradient
       fx="0"
       fy="0"
       cx="0"
       cy="0"
       r="1"
       gradientUnits="userSpaceOnUse"
       gradientTransform="matrix(-123.44486,861.29211,856.98047,122.8269,462.50879,2.9150391)"
       spreadMethod="pad"
       id="radialGradient32"><stop
         style="stop-opacity:1;stop-color:#ffffff"
         offset="0"
         id="stop34" /><stop
         style="stop-opacity:1;stop-color:#ffffff"
         offset="0.61973339"
         id="stop36" /><stop
         style="stop-opacity:1;stop-color:#dadada"
         offset="0.897561"
         id="stop38" /><stop
         style="stop-opacity:1;stop-color:#dadada"
         offset="0.90006244"
         id="stop40" /><stop
         style="stop-opacity:1;stop-color:#b2b2b2"
         offset="1"
         id="stop42" /></radialGradient><clipPath
       clipPathUnits="userSpaceOnUse"
       id="clipPath62"><path
         d="M 0,800 800,800 800,0 0,0 0,800 Z"
         id="path64"
         inkscape:connector-curvature="0" /></clipPath></defs><sodipodi:namedview
     pagecolor="#ffffff"
     bordercolor="#666666"
     borderopacity="1"
     objecttolerance="10"
     gridtolerance="10"
     guidetolerance="10"
     inkscape:pageopacity="0"
     inkscape:pageshadow="2"
     inkscape:window-width="1366"
     inkscape:window-height="705"
     id="namedview4"
     showgrid="false"
     inkscape:zoom="0.48"
     inkscape:cx="500"
     inkscape:cy="500"
     inkscape:window-x="-8"
     inkscape:window-y="-8"
     inkscape:window-maximized="1"
     inkscape:current-layer="g10" /><g
     id="g10"
     inkscape:groupmode="layer"
     inkscape:label="16750-NR2P32"
     transform="matrix(1.25,0,0,-1.25,0,1000)"><g
       id="g58"
       transform="matrix(1.1068552,0,0,1.0142521,-81.768422,-9.569094)"><g
         id="g60"
         clip-path="url(#clipPath62)"><g
           id="g66"
           transform="translate(455.2979,474.8086)" /><g
           id="g70"
           transform="translate(723.2812,293.8096)"><path
             d="m 0,0 c -0.117,-0.378 -2.9,-1.933 -6.801,-3.821 -3.901,-1.89 -14.325,-9.095 -20.108,-13.834 -5.784,-4.74 -13.082,-11.946 -13.082,-11.946 0,0 -0.156,1.622 -0.051,2.624 0.105,1.002 -0.185,3.06 0.202,3.568 0.388,0.508 0.995,2.332 0.918,3.081 -0.077,0.749 0.139,2.503 0.867,3.58 0.73,1.077 0.316,3.069 0.358,4.133 0.041,1.063 0.753,3.015 0.983,4.019 0.231,1.005 0.103,4.378 0.192,6.194 0.089,1.814 1.031,4.812 1.089,6.064 0.059,1.251 1.804,5.786 2.25,8.545 0.447,2.76 1.438,11.697 1.301,14.445 -0.137,2.748 0.142,14.089 0.705,19.351 0.563,5.262 2.387,18.634 2.387,18.634 0,0 3.266,-6.125 6.182,-11.382 2.916,-5.256 10.969,-23.915 13.055,-28.25 2.085,-4.335 2.708,-7.448 3.483,-8.684 0.774,-1.235 1.473,-1.846 1.553,-2.719 0.08,-0.874 1.792,-5.341 2.576,-7.014 C -1.158,4.915 -2.199,3.77 -1.059,2.979 0.082,2.189 0.118,0.377 0,0 m -82.938,267.615 -0.005,0.009 c 0.107,-0.078 0.045,0.214 -0.018,0.565 -0.015,0.388 0.082,0.924 0.405,1.486 0.256,0.45 0.619,0.904 1.059,1.357 -0.417,-1.428 -0.764,-2.841 -0.997,-4.023 -0.152,0.14 -0.31,0.329 -0.444,0.606 m -4.363,7.925 c -0.094,0.186 -0.188,0.375 -0.286,0.568 -0.067,0.199 -0.136,0.401 -0.206,0.606 -0.087,0.413 -0.181,0.844 -0.097,1.166 0.049,0.231 0.168,0.469 0.315,0.707 -0.122,-0.556 -0.163,-1.094 -0.103,-1.579 0.138,-1.097 0.614,-1.909 1.03,-2.364 0.415,-0.46 0.724,-0.636 0.71,-0.648 0.015,0.01 -0.255,0.25 -0.554,0.761 -0.338,0.485 -0.593,1.323 -0.626,2.289 -0.022,0.488 0.081,1.007 0.264,1.509 0.203,0.483 0.59,0.91 1.012,1.321 0.394,0.353 0.86,0.652 1.36,0.918 -0.181,-0.109 -0.36,-0.218 -0.525,-0.336 -0.396,-0.313 -0.751,-0.649 -1.045,-0.989 -0.602,-0.679 -0.822,-1.479 -0.777,-1.998 0.056,-0.524 0.233,-0.765 0.216,-0.769 0.015,-10e-4 -0.093,0.288 -0.023,0.763 0.044,0.48 0.398,1.076 0.99,1.618 0.295,0.276 0.654,0.533 1.058,0.778 0.037,0.021 0.081,0.038 0.12,0.058 -0.072,-0.063 -0.152,-0.113 -0.219,-0.185 -0.709,-0.698 -1.032,-1.621 -1.084,-2.382 -0.083,-0.787 0.251,-1.381 0.429,-1.753 0.085,-0.105 0.154,-0.191 0.213,-0.266 -0.213,-0.867 -0.131,-1.663 0.066,-2.291 -0.778,0.524 -1.625,1.349 -2.238,2.498 m 8.375,14.431 c -0.474,0.081 -0.932,0.187 -1.379,0.304 0.06,0.133 0.115,0.255 0.178,0.394 0.205,0.316 0.416,0.648 0.62,0.997 0.216,0.34 0.393,0.735 0.686,1.003 l 0.396,0.453 0.487,0.383 c 0.126,0.109 0.263,0.204 0.401,0.3 -0.448,-1.313 -0.611,-2.606 -0.789,-3.905 -0.201,0.024 -0.404,0.037 -0.6,0.071 m 0.908,10.228 c 0.025,0.016 0.051,0.032 0.077,0.049 -0.003,-0.003 -0.007,-0.005 -0.01,-0.008 -0.023,-0.013 -0.045,-0.028 -0.067,-0.041 m -5.163,1.291 c 0.193,0.241 0.473,0.456 0.791,0.653 0.075,-0.04 0.152,-0.088 0.224,-0.125 0.178,-0.081 0.35,-0.134 0.516,-0.174 -0.826,-0.603 -1.136,-1.144 -1.207,-1.586 -0.135,0.079 -0.262,0.169 -0.36,0.281 -0.25,0.256 -0.232,0.627 0.036,0.951 m 0.472,1.745 c -0.227,0.31 -0.293,0.566 -0.145,0.748 0.225,0.351 0.899,0.553 1.6,0.69 l 0.035,0.01 c 0.229,0.046 0.472,0.095 0.716,0.144 0.815,0.209 1.71,0.339 2.545,0.51 0.041,-0.016 0.082,-0.031 0.123,-0.045 -0.443,-0.17 -0.889,-0.342 -1.336,-0.514 -0.913,-0.365 -1.795,-0.874 -2.627,-1.291 l 0.03,0.015 c -0.242,-0.124 -0.461,-0.242 -0.671,-0.374 -0.036,-0.021 -0.07,-0.045 -0.105,-0.068 -0.055,0.059 -0.118,0.111 -0.165,0.175 m 8.3,27.009 c 0.273,0.946 1.132,1.803 2.108,2.647 0.493,0.427 1.012,0.849 1.543,1.276 -0.513,-0.593 -1.047,-1.157 -1.517,-1.736 -0.771,-0.933 -1.755,-1.886 -2.005,-2.993 -0.079,-0.345 -0.101,-0.659 -0.102,-0.958 -0.08,-0.055 -0.155,-0.11 -0.223,-0.165 -0.031,0.544 0.026,1.235 0.196,1.929 m 70.596,29.173 c 0.63,-0.514 1.103,-1.188 1.649,-1.772 0.498,-0.627 0.95,-1.28 1.398,-1.903 0.817,-1.32 1.623,-2.498 1.979,-3.67 0.282,-0.829 0.446,-1.598 0.593,-2.231 -2.09,3.334 -4.429,7.259 -5.961,9.521 -0.228,0.336 -0.423,0.639 -0.616,0.942 0.331,-0.281 0.653,-0.575 0.958,-0.887 M 7.789,338.538 c 1.029,-1.396 1.861,-2.792 2.313,-4.054 0.451,-1.266 0.415,-2.402 0.128,-3.161 -0.007,-0.022 -0.017,-0.036 -0.025,-0.058 -0.09,0.227 -0.187,0.452 -0.297,0.674 0.055,0.475 0.127,1.222 -0.168,2.051 -0.261,0.857 -0.809,1.741 -1.418,2.601 -0.605,0.862 -1.301,1.751 -1.958,2.657 -0.26,0.353 -0.517,0.704 -0.774,1.053 0.032,0.178 0.062,0.355 0.09,0.532 0.117,-0.117 0.237,-0.237 0.353,-0.354 0.69,-0.644 1.196,-1.304 1.756,-1.941 m 0.204,-10.101 c 0.106,0.338 0.203,0.704 0.259,1.118 0.063,0.51 0.186,1.058 0.189,1.657 0.004,0.094 0.008,0.193 0.013,0.288 0.014,-0.02 0.028,-0.041 0.043,-0.06 0.455,-0.659 0.805,-1.304 1.011,-1.934 0.219,-0.628 0.245,-1.24 0.182,-1.789 -0.022,-0.137 -0.042,-0.27 -0.06,-0.399 -0.004,-0.092 -0.039,-0.167 -0.075,-0.254 -0.252,0.506 -0.75,0.969 -1.562,1.373 m 8.643,-53.11 c -0.09,0.032 -0.193,0.069 -0.286,0.102 0.182,0.382 0.328,0.842 0.42,1.36 0.003,0.021 0.003,0.044 0.007,0.065 0.1,-0.017 0.2,-0.028 0.299,-0.037 0.037,-0.494 0.075,-0.971 0.117,-1.406 0.008,-0.107 0.003,-0.196 0.007,-0.298 -0.18,0.07 -0.354,0.138 -0.564,0.214 m -1.558,0.656 c 0.055,0.106 0.104,0.197 0.159,0.314 0.095,0.281 0.253,0.608 0.317,0.937 0.219,-0.098 0.441,-0.179 0.664,-0.247 -0.003,-0.042 -0.001,-0.089 -0.004,-0.129 -0.038,-0.486 -0.098,-0.934 -0.195,-1.31 -0.101,0.035 -0.191,0.067 -0.293,0.104 -0.212,0.104 -0.432,0.21 -0.648,0.331 m -3.367,3.883 c -0.268,0.44 -0.548,0.903 -0.823,1.356 0.121,-0.14 0.24,-0.286 0.361,-0.425 0.346,-0.413 0.7,-0.789 1.06,-1.125 0.22,-0.219 0.457,-0.433 0.692,-0.649 -0.009,-0.092 -0.016,-0.154 -0.016,-0.154 0,0 0.018,0.053 0.041,0.129 0.126,-0.116 0.251,-0.236 0.373,-0.349 0.329,-0.271 0.659,-0.533 0.999,-0.775 0.01,-0.15 0.02,-0.311 0.029,-0.454 0.019,-0.357 -10e-4,-0.68 -0.035,-0.987 -0.992,0.781 -1.829,2.003 -2.681,3.433 m 2.558,-36.579 c 0.887,-1.659 0.879,-3.615 0.421,-5.319 -0.084,0.324 -0.185,0.647 -0.305,0.967 -0.11,0.335 -0.221,0.676 -0.333,1.02 -0.143,0.332 -0.288,0.668 -0.435,1.006 -0.15,0.337 -0.302,0.677 -0.453,1.018 l -0.539,0.984 -0.559,0.973 c -0.209,0.309 -0.417,0.616 -0.623,0.92 -10e-4,0.002 -0.002,0.004 -0.004,0.005 -0.082,0.754 -0.113,1.383 -0.158,2.01 1.193,-0.989 2.299,-2.173 2.988,-3.584 m 0.183,-8.164 c 0.011,-0.24 0.01,-0.469 0.003,-0.691 -0.22,-0.007 -0.44,-0.014 -0.662,-0.024 0.223,0.288 0.436,0.589 0.639,0.914 0.005,-0.065 0.017,-0.135 0.02,-0.199 M 14.358,233.4 c -0.191,0.026 -0.382,0.053 -0.577,0.085 -0.007,10e-4 -0.014,0.003 -0.021,0.004 0.209,0.016 0.414,0.03 0.62,0.044 -0.007,-0.046 -0.015,-0.088 -0.022,-0.133 m -2.469,-1.976 c -0.187,-0.314 -0.426,-0.578 -0.662,-0.827 -0.943,-0.991 -1.896,-1.7 -2.625,-2.07 -0.301,-0.2 -0.562,-0.294 -0.757,-0.384 0.054,1.495 0.103,3.04 0.146,4.615 0.966,-0.462 1.735,-0.557 2.386,-0.339 0.171,-0.062 0.341,-0.123 0.514,-0.181 -0.028,-0.023 -0.06,-0.048 -0.086,-0.07 -0.47,-0.382 -0.887,-0.721 -1.244,-0.988 -0.691,-0.552 -1.084,-0.867 -1.084,-0.867 0,0 0.433,0.258 1.195,0.708 0.375,0.235 0.831,0.52 1.354,0.847 0.107,0.069 0.227,0.146 0.339,0.217 0.269,-0.083 0.541,-0.158 0.815,-0.229 -0.099,-0.146 -0.197,-0.29 -0.291,-0.432 m -4.22,100.663 c 0.015,-0.296 0.029,-0.586 0.044,-0.868 0.058,-0.565 0,-1.106 -0.019,-1.605 -0.014,-0.344 -0.048,-0.659 -0.089,-0.957 -1.841,0.992 -1.864,2.847 -2.53,6.256 -0.102,0.521 -0.123,1.045 -0.101,1.569 0.117,-0.18 0.233,-0.366 0.351,-0.542 0.534,-0.815 1.112,-1.592 1.634,-2.352 0.21,-0.295 0.404,-0.564 0.609,-0.851 0.034,-0.219 0.068,-0.438 0.101,-0.65 m 8.297,-52.458 c 0.031,0.437 0.064,0.891 0.099,1.361 -0.002,0.463 -0.004,0.941 -0.007,1.432 -0.001,0.124 -0.009,0.245 -0.012,0.368 0.091,-0.944 0.131,-1.889 0.129,-2.792 -0.003,-0.544 0.02,-1.069 0.039,-1.567 -0.122,0.074 -0.244,0.15 -0.365,0.235 0.058,0.312 0.104,0.631 0.117,0.963 m -2.135,2.426 c 0.005,0.024 0.009,0.05 0.014,0.074 0.079,-0.434 0.157,-0.86 0.231,-1.27 0.029,-0.214 0.058,-0.413 0.088,-0.62 -0.19,0.209 -0.377,0.416 -0.57,0.629 0.087,0.358 0.159,0.753 0.237,1.187 m -1.093,2.059 c 0.029,0.421 0.103,0.885 0.113,1.371 -0.002,0.046 -0.001,0.095 -0.002,0.141 0.105,-0.186 0.217,-0.383 0.32,-0.562 0.064,-0.155 0.136,-0.301 0.206,-0.449 -0.025,-0.905 -0.025,-1.752 -0.1,-2.493 -0.017,-0.297 -0.035,-0.574 -0.051,-0.839 l -0.137,0.154 -0.434,0.579 c -0.119,0.157 -0.245,0.313 -0.365,0.47 0.171,0.421 0.329,0.972 0.45,1.628 m -3.3,2.97 c -0.014,0.028 -0.026,0.056 -0.039,0.083 0.924,-0.231 1.803,-0.344 2.501,-0.207 0.005,-0.02 0.007,-0.042 0.013,-0.062 0.103,-0.488 0.132,-0.98 0.209,-1.439 0.05,-0.459 0.04,-0.892 0.059,-1.296 -0.04,-0.523 -0.064,-0.994 -0.115,-1.39 -0.104,0.134 -0.204,0.269 -0.311,0.402 -0.279,0.41 -0.542,0.842 -0.817,1.263 -0.278,0.421 -0.547,0.848 -0.768,1.31 l -0.732,1.336 z m 4.173,-51.719 c -0.113,1.255 -0.515,2.493 -1.039,3.672 -0.185,1.093 -0.451,2.191 -0.673,3.179 l 0.387,-0.681 c 0.152,-0.326 0.305,-0.65 0.454,-0.972 0.151,-0.32 0.302,-0.639 0.449,-0.954 0.124,-0.325 0.246,-0.646 0.367,-0.961 0.301,-0.702 0.522,-1.387 0.675,-2.044 -0.183,-0.437 -0.393,-0.848 -0.62,-1.239 m -0.842,-0.653 c -0.006,-0.109 -0.004,-0.218 -0.004,-0.328 -0.151,-0.004 -0.302,-0.006 -0.453,-0.006 0.165,0.318 0.282,0.668 0.359,1.044 0.035,-0.237 0.085,-0.475 0.098,-0.71 m 4.196,43.346 c -0.015,0.005 -0.03,0.008 -0.045,0.014 0.004,0.059 0.015,0.113 0.019,0.173 0.008,-0.062 0.018,-0.125 0.026,-0.187 M 8.43,334.55 c -0.237,0.389 -0.47,0.784 -0.708,1.181 -0.059,0.143 -0.119,0.285 -0.18,0.428 0.025,-0.031 0.052,-0.065 0.077,-0.096 0.654,-0.815 1.289,-1.541 1.599,-2.278 0.235,-0.477 0.358,-0.936 0.427,-1.341 -0.389,0.704 -0.788,1.379 -1.215,2.106 m -91.468,-54.746 c 0.378,0.22 0.809,0.384 1.212,0.583 0.154,0.064 0.313,0.124 0.471,0.185 -0.047,-0.456 -0.073,-0.931 -0.082,-1.419 -0.516,-0.269 -1.017,-0.541 -1.476,-0.886 -0.769,-0.549 -1.5,-1.229 -1.906,-2.054 -0.119,-0.244 -0.203,-0.484 -0.272,-0.72 -0.023,0.058 -0.047,0.116 -0.075,0.186 -0.098,0.393 -0.207,0.961 -0.049,1.6 0.129,0.639 0.53,1.308 1.13,1.815 0.288,0.266 0.701,0.46 1.047,0.71 m 9.172,49.004 c 0.035,0.154 0.068,0.31 0.121,0.465 0.292,0.911 1.21,1.584 2.104,2.551 0.88,0.944 1.907,1.888 2.68,3.033 0.055,0.076 0.109,0.15 0.164,0.226 -0.788,-2.322 -2.192,-4.837 -4.468,-5.954 -0.223,-0.109 -0.419,-0.216 -0.601,-0.321 m -6.63,-26.263 c -0.243,-0.126 -0.462,-0.25 -0.66,-0.372 -0.213,0.07 -0.432,0.163 -0.649,0.288 0.139,0.069 0.276,0.137 0.434,0.21 l 0.03,0.015 c 0.828,0.359 1.651,0.826 2.56,1.172 0.565,0.23 1.13,0.46 1.686,0.686 0.048,0.022 0.094,0.043 0.142,0.065 -0.509,-0.416 -1.638,-1.08 -3.543,-2.064 M 41.872,-8.995 c -0.563,6.427 -4.193,32.174 -5.703,39.083 -1.511,6.909 -6.983,30.994 -10.466,42.866 -3.482,11.871 -8.258,22.655 -8.258,22.655 0,0 0.026,1.939 -0.358,2.369 -0.384,0.43 -0.048,2.437 -0.642,4.05 -0.594,1.614 -2.861,5.633 -2.861,5.633 0,0 0.648,2.012 -0.006,3.5 -0.654,1.488 -2.592,4.7 -2.799,5.696 -0.207,0.996 -0.51,3.741 -0.262,3.809 0.249,0.067 1.379,-0.223 1.679,0.408 0.301,0.631 0.417,4.259 -0.559,6.24 -0.977,1.98 -0.901,4.482 -1.315,6.476 -0.414,1.992 -1.624,6.343 -1.813,9.653 -0.191,3.309 -1.357,8.6 -2.364,12.206 -1.009,3.606 -2.417,18.081 -1.922,24.717 0.495,6.636 0.352,13.947 0.872,16.145 0.519,2.198 2.176,16.546 2.379,22.176 0.096,2.693 0.24,5.91 0.368,9.387 0.209,0.062 0.502,0.118 0.843,0.278 0.776,0.304 1.864,0.858 2.94,1.851 0.269,0.249 0.544,0.514 0.777,0.842 0.123,0.158 0.249,0.319 0.378,0.482 0.031,0.056 0.062,0.114 0.092,0.17 0.194,-0.04 0.387,-0.083 0.583,-0.114 1.225,-0.202 2.519,-0.191 3.686,0.025 2.346,0.447 4.311,1.504 5.749,2.661 1.477,1.13 2.316,2.453 2.88,3.326 0.479,0.945 0.705,1.488 0.705,1.488 0,0 -0.373,-0.458 -1.024,-1.257 -0.728,-0.717 -1.728,-1.775 -3.219,-2.621 -1.458,-0.861 -3.319,-1.608 -5.353,-1.859 -0.721,-0.097 -1.447,-0.073 -2.19,0.012 0.022,0.068 0.046,0.129 0.068,0.202 0.054,0.003 0.109,0.008 0.163,0.011 2.033,0.136 3.931,0.714 5.388,1.46 1.466,0.739 2.503,1.725 3.032,2.493 0.604,0.706 0.976,1.101 0.976,1.101 0,0 -0.413,-0.336 -1.12,-0.971 -0.352,-0.325 -0.675,-0.773 -1.243,-1.093 -0.527,-0.366 -1.171,-0.701 -1.885,-1.023 -1.417,-0.624 -3.184,-1.004 -5.124,-1.084 0.031,0.214 0.06,0.434 0.069,0.671 0.013,0.361 -0.005,0.75 -0.038,1.148 0.206,0.423 0.386,0.871 0.533,1.342 0.624,1.855 0.666,4.186 -0.341,6.107 -0.939,1.875 -2.468,3.312 -4.017,4.383 -0.021,0.154 -0.043,0.306 -0.073,0.471 -0.35,1.931 -1.19,3.352 -0.545,5.49 0.646,2.138 2.711,5.242 3.057,9.937 0.062,0.862 0.035,1.692 -0.061,2.495 0.802,-0.164 1.524,-0.101 1.96,-0.023 -0.006,-0.001 -0.008,-0.001 -0.009,-0.001 0.261,0.058 0.402,0.089 0.529,0.117 0.581,0.168 0.9,0.29 0.9,0.29 0,0 -0.341,-0.054 -0.935,-0.1 -0.12,-0.012 -0.252,-0.025 -0.5,-0.049 l -0.008,-0.001 -0.003,0 c -0.435,0.018 -1.109,0.087 -1.853,0.318 -0.056,0.017 -0.116,0.044 -0.173,0.063 -0.026,0.159 -0.054,0.316 -0.085,0.473 0.911,-0.231 1.707,-0.312 2.263,-0.299 0.588,0.022 0.909,0.088 0.909,0.088 0,0 -0.308,0.109 -0.839,0.299 -0.521,0.207 -1.226,0.551 -2.043,1.004 -0.211,0.122 -0.434,0.253 -0.665,0.389 -0.137,0.448 -0.288,0.888 -0.455,1.316 0.099,-0.043 0.199,-0.095 0.296,-0.132 0.66,-0.278 1.249,-0.494 1.607,-0.613 -0.006,0.002 -0.008,0.003 -0.01,0.004 0.334,-0.128 0.528,-0.169 0.704,-0.196 0.603,-0.065 0.926,0.064 0.926,0.045 0.004,0.017 -0.347,-0.035 -0.883,0.143 -0.157,0.048 -0.329,0.117 -0.623,0.268 l -0.01,0.005 c -0.319,0.203 -0.848,0.519 -1.457,0.844 -0.313,0.148 -0.626,0.354 -0.943,0.572 -0.307,0.695 -0.639,1.365 -0.976,2.01 0.01,-0.008 0.02,-0.018 0.03,-0.027 0.512,-0.386 0.997,-0.752 1.443,-1.089 0.451,-0.324 0.92,-0.536 1.31,-0.757 0.393,-0.196 0.738,-0.426 1.05,-0.511 0.299,-0.098 0.52,-0.207 0.644,-0.318 0.131,-0.108 0.136,-0.215 0.146,-0.208 -0.011,-0.007 0.005,0.102 -0.108,0.242 -0.107,0.142 -0.319,0.302 -0.604,0.461 -0.296,0.123 -0.563,0.39 -0.929,0.65 -0.345,0.275 -0.767,0.542 -1.174,0.891 -0.395,0.361 -0.822,0.752 -1.274,1.165 -0.06,0.063 -0.121,0.134 -0.181,0.2 0.074,-0.042 0.145,-0.091 0.222,-0.128 1.278,-0.729 2.315,-1.308 3.139,-1.551 0.41,-0.128 0.738,-0.21 0.97,-0.212 0.224,-0.015 0.345,-0.022 0.345,-0.022 0,0 -0.111,0.046 -0.319,0.131 -0.208,0.068 -0.485,0.237 -0.823,0.457 -0.697,0.431 -1.574,1.252 -2.638,2.121 -0.558,0.405 -1.029,1.011 -1.597,1.549 -0.279,0.276 -0.564,0.559 -0.856,0.848 -0.258,0.324 -0.522,0.654 -0.791,0.99 -0.269,0.332 -0.542,0.671 -0.819,1.014 -0.065,0.092 -0.132,0.187 -0.196,0.28 -0.711,1.692 -1.362,3.213 -2.149,4.238 -0.054,0.197 -0.108,0.397 -0.167,0.6 -0.227,0.886 -0.483,1.839 -0.767,2.794 -0.209,0.601 -0.414,1.194 -0.619,1.779 0.257,-0.082 0.574,-0.2 0.938,-0.342 0.102,-0.503 0.218,-1.011 0.387,-1.516 0.388,-0.983 0.667,-2.054 1.199,-2.976 l 0.753,-1.409 c 0.279,-0.441 0.556,-0.881 0.832,-1.317 0.541,-0.886 1.147,-1.673 1.7,-2.468 1.075,-1.54 2.397,-3.058 3.957,-3.735 -0.029,-0.22 -0.052,-0.415 -0.06,-0.566 -0.017,-0.266 -0.027,-0.408 -0.027,-0.408 0,0 0.067,0.126 0.193,0.362 0.06,0.126 0.148,0.286 0.25,0.469 0.299,-0.113 0.6,-0.2 0.879,-0.275 0.063,-0.01 0.116,-0.018 0.177,-0.027 -0.249,-0.39 -0.414,-0.612 -0.414,-0.612 0,0 0.234,0.196 0.619,0.581 0.217,-0.034 0.44,-0.067 0.64,-0.098 0.259,-0.036 0.509,-0.075 0.753,-0.11 -0.005,-0.297 -0.015,-0.571 -0.006,-0.821 0.002,-0.987 0.034,-1.575 0.034,-1.575 0,0 0.22,0.522 0.551,1.476 0.078,0.249 0.182,0.528 0.284,0.833 0.004,0 0.01,-0.002 0.014,-10e-4 0.466,-0.033 0.843,0.048 1.078,0.119 0.229,0.115 0.335,0.18 0.335,0.18 0,0 -0.125,-0.025 -0.359,-0.071 -0.231,0.002 -0.558,0.024 -0.962,0.153 0.051,0.177 0.11,0.342 0.15,0.536 0.091,0.472 0.183,1.007 0.273,1.566 0.355,0.064 0.686,0.155 0.98,0.272 0.643,0.233 1.145,0.544 1.532,0.819 0.389,0.274 0.663,0.521 0.841,0.701 0.179,0.174 0.274,0.266 0.274,0.266 0,0 -0.118,-0.061 -0.339,-0.175 -0.216,-0.123 -0.542,-0.283 -0.965,-0.446 -0.558,-0.21 -1.327,-0.452 -2.186,-0.492 0.169,1.703 0.181,3.712 -0.134,5.824 -0.035,0.274 -0.071,0.55 -0.106,0.827 -0.064,0.272 -0.128,0.546 -0.193,0.821 -0.135,0.551 -0.272,1.109 -0.41,1.671 -0.236,1.143 -0.708,2.215 -1.135,3.306 -0.228,0.538 -0.423,1.094 -0.685,1.611 -0.105,0.197 -0.209,0.393 -0.313,0.589 0.538,-0.344 1.054,-0.643 1.477,-0.943 0.632,-0.435 1.152,-0.801 1.475,-1.123 0.177,-0.15 0.32,-0.274 0.439,-0.318 0.112,-0.054 0.171,-0.082 0.171,-0.082 0,0 -0.228,0.142 -0.464,0.526 -0.182,0.264 -0.449,0.611 -0.795,0.975 0.164,-0.075 0.318,-0.139 0.45,-0.203 0.305,-0.142 0.536,-0.265 0.697,-0.381 0.327,-0.228 0.401,-0.382 0.415,-0.369 -0.016,-0.013 -0.031,0.165 -0.316,0.481 -0.139,0.16 -0.352,0.339 -0.638,0.542 -0.282,0.202 -0.661,0.415 -0.996,0.718 l -0.015,0.012 c 0.228,-0.048 -0.457,0.624 -1.248,1.372 -0.424,0.44 -0.878,0.923 -1.358,1.429 -0.13,0.951 -0.286,2.223 -0.508,4.081 0.189,-0.132 0.379,-0.257 0.556,-0.379 0.087,-0.051 0.172,-0.093 0.258,-0.14 0.368,-0.411 0.701,-0.806 0.962,-1.192 0.425,-0.591 0.689,-1.134 0.841,-1.538 0.123,-0.407 0.181,-0.659 0.181,-0.659 0,0 0.015,0.246 0.007,0.7 -0.075,0.433 -0.173,1.099 -0.547,1.78 -0.05,0.1 -0.124,0.211 -0.18,0.314 0.517,-0.176 0.965,-0.281 1.309,-0.289 0.43,-0.026 0.675,-0.042 0.675,-0.042 0,0 -0.23,0.084 -0.633,0.231 -0.412,0.086 -0.922,0.428 -1.533,0.756 -0.121,0.089 -0.258,0.192 -0.388,0.284 -0.208,0.313 -0.427,0.628 -0.676,0.936 -0.338,0.42 -0.708,0.844 -1.088,1.271 -0.097,0.727 -0.196,1.403 -0.303,2.028 0.451,-0.296 0.901,-0.559 1.325,-0.753 0.662,-0.303 1.281,-0.362 1.69,-0.387 0.418,0.022 0.644,0.053 0.644,0.053 0,0 -0.235,0.04 -0.618,0.139 -0.385,0.104 -0.893,0.339 -1.453,0.689 -0.563,0.35 -1.15,0.879 -1.773,1.453 -0.019,0.019 -0.039,0.038 -0.056,0.057 -0.049,0.225 -0.099,0.444 -0.152,0.657 0.574,-0.328 1.137,-0.659 1.717,-0.908 0.733,-0.325 1.48,-0.462 2.103,-0.545 0.635,-0.056 1.155,-0.013 1.514,0.037 0.357,0.053 0.561,0.082 0.561,0.082 0,0 -0.201,0.041 -0.556,0.112 -0.354,0.03 -0.842,0.182 -1.414,0.32 -0.563,0.161 -1.178,0.433 -1.809,0.776 0.059,-0.004 0.122,-0.021 0.179,-0.025 1.76,-0.172 3.137,0.349 4.026,0.593 0.888,0.289 1.405,0.49 1.405,0.49 0,0 -0.535,0.058 -1.488,0.098 -0.946,0.08 -2.239,0.035 -3.633,0.506 -0.495,0.162 -1.002,0.383 -1.511,0.631 0.834,-0.183 1.658,-0.234 2.365,-0.206 1.04,0.042 1.9,0.363 2.375,0.744 0.477,0.393 0.58,0.736 0.593,0.723 0,0 -0.056,-0.062 -0.162,-0.177 -0.105,-0.111 -0.282,-0.259 -0.535,-0.384 -0.49,-0.287 -1.311,-0.393 -2.27,-0.346 -0.976,0.055 -2.065,0.292 -3.187,0.803 -0.569,0.215 -1.155,0.444 -1.73,0.749 -0.143,0.07 -0.289,0.141 -0.434,0.21 -0.236,0.326 -0.495,0.647 -0.781,0.967 -0.593,0.661 -1,1.311 -1.286,1.978 0.083,-0.04 0.167,-0.084 0.246,-0.116 0.289,-0.107 0.562,-0.208 0.812,-0.301 0.487,-0.18 0.921,-0.279 1.187,-0.42 0.292,-0.112 0.46,-0.175 0.46,-0.175 0,0 -0.13,0.123 -0.356,0.338 -0.234,0.217 -0.591,0.495 -1.054,0.766 -0.219,0.135 -0.459,0.283 -0.712,0.438 -0.247,0.16 -0.46,0.353 -0.711,0.519 -0.099,0.091 -0.197,0.193 -0.292,0.292 -0.284,1.28 -0.308,2.689 -0.444,4.412 0.336,-0.118 0.663,-0.219 0.979,-0.305 0.276,-0.064 0.472,-0.17 0.677,-0.265 0.225,-0.074 0.382,-0.218 0.545,-0.354 0.331,-0.267 0.51,-0.645 0.611,-1.018 0.17,-0.765 0.031,-1.489 -0.096,-1.966 -0.146,-0.476 -0.252,-0.753 -0.252,-0.753 0,0 0.165,0.236 0.433,0.681 0.2,0.463 0.568,1.166 0.468,2.134 -0.07,0.468 -0.246,1.01 -0.641,1.428 -0.193,0.212 -0.4,0.43 -0.667,0.557 -0.087,0.052 -0.177,0.101 -0.266,0.151 0.227,-0.018 0.455,-0.032 0.675,-0.062 0.648,-0.113 1.218,-0.304 1.603,-0.634 0.341,-0.348 0.59,-0.752 0.648,-1.072 0.085,-0.326 0.133,-0.511 0.133,-0.511 0,0 0.021,0.194 0.059,0.536 0.019,0.338 -0.042,0.885 -0.425,1.424 -0.414,0.5 -1.079,0.917 -1.829,1.114 -0.371,0.098 -0.762,0.169 -1.166,0.198 -0.41,0.042 -0.817,-0.01 -1.131,0.017 -0.201,0.009 -0.354,0.049 -0.495,0.111 -0.008,0.064 -0.013,0.125 -0.022,0.19 -0.19,1.552 -0.233,2.451 -0.177,3.041 0.098,-0.112 0.184,-0.231 0.294,-0.333 0.179,-0.208 0.402,-0.361 0.612,-0.499 0.205,-0.145 0.401,-0.271 0.608,-0.352 0.198,-0.092 0.384,-0.163 0.549,-0.215 0.174,-0.024 0.328,-0.044 0.452,-0.061 0.244,-0.018 0.383,-0.027 0.383,-0.027 0,0 -0.117,0.076 -0.322,0.211 -0.098,0.059 -0.218,0.132 -0.356,0.215 -0.122,0.109 -0.254,0.234 -0.404,0.349 -0.158,0.103 -0.294,0.264 -0.436,0.432 -0.144,0.162 -0.296,0.328 -0.426,0.526 -0.196,0.251 -0.39,0.551 -0.582,0.86 0.164,0.249 0.366,0.499 0.581,0.932 0.276,0.554 0.412,1.087 0.363,1.588 0.085,0.098 0.163,0.183 0.255,0.299 0.067,0.109 0.196,0.24 0.244,0.402 0.055,0.143 0.113,0.291 0.174,0.444 0.214,0.614 0.332,1.397 0.19,2.212 -0.052,0.37 -0.149,0.745 -0.273,1.118 0.076,0.086 0.148,0.161 0.228,0.269 0.534,0.71 0.917,2.082 0.632,3.62 -0.257,1.535 -0.982,3.173 -1.961,4.753 -0.574,0.758 -1.127,1.639 -1.817,2.294 -0.603,0.631 -1.214,1.274 -1.826,1.915 -0.143,0.513 -0.37,1.015 -0.734,1.501 -0.741,0.987 -1.69,2.436 -2.717,4.062 -0.11,0.714 -0.093,1.732 -0.405,2.944 -0.289,1.266 -0.999,2.615 -1.774,3.982 -0.428,0.669 -0.878,1.365 -1.386,2.031 -0.56,0.629 -1.052,1.339 -1.711,1.894 -0.894,0.894 -1.903,1.649 -2.93,2.29 -0.983,1.739 -1.73,3.253 -3.467,5.77 -2.637,3.824 -6.588,7.685 -11.866,9.019 -5.277,1.335 -8.478,-1.166 -9.724,-1.378 -1.247,-0.212 -3.102,1.94 -7.347,1.67 -4.246,-0.271 -7.659,-4.714 -12.444,-9.371 -4.786,-4.657 -8.04,-10.784 -9.79,-14.069 -1.749,-3.285 -2.666,-4.303 -5.011,-9.037 -2.003,-4.045 -2.054,-5.407 -2.422,-7.363 -0.011,-0.009 -0.023,-0.019 -0.032,-0.029 -0.498,-0.465 -1.028,-0.92 -1.583,-1.357 -1.067,-0.909 -2.204,-1.803 -3.156,-2.741 -0.97,-0.923 -1.831,-2.01 -2.061,-3.161 -0.094,-0.584 -0.079,-1.071 -0.025,-1.515 0.03,-0.278 0.082,-0.521 0.14,-0.746 -0.931,-0.872 -0.5,-1.537 0.211,-1.891 0.966,-0.481 -1.203,-3.337 -1.613,-4.783 -0.312,-1.099 1.022,-3.249 1.587,-5.044 -0.058,-0.019 -0.118,-0.043 -0.176,-0.061 -1.063,-0.307 -2.012,-0.567 -2.636,-0.594 -0.323,-0.024 -0.564,0.038 -0.737,0.089 -0.158,0.084 -0.243,0.128 -0.243,0.128 -0.002,0.027 0.196,-0.414 0.926,-0.607 0.717,-0.206 1.707,-0.228 2.913,-0.137 0.061,0.005 0.128,0.019 0.191,0.026 0.006,-0.102 0.001,-0.199 -0.005,-0.294 -0.095,-0.079 -0.189,-0.159 -0.282,-0.238 -0.37,-0.297 -0.749,-0.561 -1.12,-0.842 -0.377,-0.276 -0.74,-0.537 -1.068,-0.839 -0.165,-0.145 -0.325,-0.286 -0.479,-0.422 -0.14,-0.158 -0.274,-0.311 -0.402,-0.457 -0.534,-0.569 -0.792,-1.151 -0.967,-1.569 -0.147,-0.436 -0.089,-0.691 -0.089,-0.691 0,0 0.02,0.26 0.263,0.607 0.224,0.342 0.649,0.815 1.196,1.264 0.133,0.116 0.264,0.242 0.413,0.36 0.163,0.106 0.331,0.215 0.505,0.327 0.333,0.23 0.729,0.446 1.117,0.69 0.143,0.09 0.294,0.199 0.442,0.294 -0.765,-1.521 -2.306,-3.183 -3.596,-4.911 -0.791,-1.059 -0.789,-1.858 -0.453,-2.411 -0.58,-0.079 -1.172,-0.17 -1.791,-0.313 -0.262,-0.06 -0.524,-0.119 -0.77,-0.174 -0.358,-0.084 -0.731,-0.18 -1.099,-0.342 -0.371,-0.167 -0.775,-0.418 -1.01,-0.854 -0.064,-0.163 -0.152,-0.319 -0.158,-0.492 0.009,-0.17 -0.013,-0.368 0.063,-0.5 0.103,-0.306 0.281,-0.512 0.454,-0.689 0.043,-0.043 0.089,-0.067 0.133,-0.105 -0.255,-0.214 -0.486,-0.457 -0.669,-0.748 -0.385,-0.512 -0.306,-1.405 0.175,-1.753 0.254,-0.225 0.522,-0.338 0.78,-0.409 0.112,-0.417 0.403,-0.664 0.403,-0.664 l 1.626,-0.031 c 0.673,-0.013 1.612,0.451 2.496,0.985 -0.436,-0.271 -0.866,-0.548 -1.334,-0.747 -0.594,-0.261 -1.201,-0.483 -1.792,-0.667 -1.186,-0.358 -2.34,-0.554 -3.325,-0.495 -0.978,0.063 -1.784,0.318 -2.285,0.628 -0.52,0.281 -0.753,0.551 -0.766,0.534 0.016,0.016 0.186,-0.295 0.656,-0.693 0.466,-0.387 1.265,-0.861 2.334,-1.027 1.059,-0.156 2.327,-0.115 3.615,0.205 0.645,0.155 1.297,0.366 1.942,0.631 0.655,0.257 1.255,0.669 1.873,1.023 0.569,0.406 1.108,0.836 1.625,1.263 -0.002,-0.037 -0.004,-0.071 -0.007,-0.109 -0.193,-0.14 -0.388,-0.281 -0.577,-0.419 -1.394,-1.039 -2.691,-2.112 -3.607,-3.231 -0.913,-1.119 -1.541,-2.127 -1.788,-2.965 -0.251,-0.853 0.036,-1.322 0.003,-1.31 0.024,-0.006 -0.065,0.503 0.356,1.152 0.403,0.638 1.238,1.451 2.234,2.311 0.828,0.698 1.861,1.376 2.996,2.091 -0.006,-0.025 -0.011,-0.05 -0.017,-0.075 -0.426,-0.245 -0.84,-0.49 -1.219,-0.749 -0.786,-0.537 -1.517,-1.107 -2.088,-1.655 -0.581,-0.54 -0.937,-1.141 -1.085,-1.585 -0.131,-0.458 -0.052,-0.721 -0.067,-0.718 0,0 0.015,0.063 0.041,0.18 0.019,0.115 0.091,0.279 0.202,0.46 0.212,0.379 0.672,0.798 1.272,1.235 0.336,0.255 0.732,0.496 1.161,0.744 -1.573,-1.368 -2.784,-2.945 -3.51,-4.475 -0.141,-0.266 -0.256,-0.532 -0.362,-0.795 -0.411,0.159 -0.808,0.327 -1.164,0.513 -1.126,0.572 -1.953,1.261 -2.467,1.822 -0.254,0.282 -0.447,0.519 -0.56,0.694 -0.123,0.171 -0.189,0.263 -0.189,0.263 0,0 0.031,-0.109 0.089,-0.311 0.052,-0.209 0.161,-0.5 0.336,-0.867 0.346,-0.723 1.044,-1.707 2.172,-2.562 0.393,-0.313 0.852,-0.6 1.338,-0.871 -0.029,-0.108 -0.058,-0.217 -0.083,-0.321 -0.188,-0.746 -0.325,-1.361 -0.412,-1.915 -0.157,-1.105 0.074,-1.718 0.04,-1.712 0,0 0.017,0.153 0.048,0.439 0.004,0.282 0.134,0.685 0.294,1.178 0.184,0.481 0.455,1.098 0.753,1.76 0.027,0.062 0.057,0.127 0.085,0.191 0.074,-0.035 0.155,-0.065 0.233,-0.098 -0.051,-0.29 -0.035,-0.503 -0.054,-0.714 0.03,-0.438 0.256,-0.592 0.224,-0.6 0.026,0.005 -0.126,0.22 -0.032,0.582 0.048,0.153 0.108,0.384 0.199,0.589 0.537,-0.219 1.093,-0.419 1.688,-0.573 0.221,-0.053 0.445,-0.104 0.672,-0.15 -0.226,-1.142 -0.575,-2.297 -1.248,-3.482 -0.253,-0.05 -0.496,-0.104 -0.754,-0.153 -1.196,-0.271 -2.445,-0.511 -3.66,-1.043 -1.218,-0.544 -2.26,-1.252 -3.162,-2.094 -0.877,-0.847 -1.744,-1.851 -1.928,-3.238 -0.072,-0.719 0.142,-1.298 0.322,-1.814 0.12,-0.247 0.237,-0.489 0.354,-0.727 0.137,-0.221 0.289,-0.424 0.428,-0.627 1.074,-1.491 2.449,-2.261 3.488,-2.572 0.025,-0.046 0.048,-0.099 0.074,-0.141 0.471,-0.808 0.761,-1.239 0.761,-1.239 0,0 -0.131,0.457 -0.354,1.237 0.027,-0.007 0.057,-0.019 0.085,-0.025 0.139,-0.189 0.292,-0.343 0.433,-0.429 0.355,-0.194 0.58,-0.192 0.575,-0.207 0.008,0.011 -0.21,0.092 -0.452,0.356 -0.058,0.059 -0.11,0.134 -0.157,0.215 0.204,-0.02 0.382,-0.023 0.517,-0.047 0.285,-0.025 0.437,-0.038 0.437,-0.038 0,0 -0.145,0.052 -0.416,0.148 -0.169,0.076 -0.406,0.13 -0.668,0.235 -0.075,0.229 -0.112,0.502 -0.097,0.803 0.017,0.51 0.216,1.11 0.516,1.644 -0.058,-0.373 -0.051,-0.731 -0.025,-1.033 0.066,-0.599 0.297,-1.07 0.534,-1.327 0.247,-0.245 0.434,-0.308 0.423,-0.318 0.012,0.007 -0.141,0.145 -0.262,0.425 -0.146,0.273 -0.163,0.726 -0.134,1.231 0.04,0.517 0.202,1.1 0.562,1.558 0.278,0.374 0.653,0.718 1.083,1.022 0.07,-0.849 0.167,-1.69 0.279,-2.488 -0.019,-0.023 -0.042,-0.046 -0.063,-0.068 -0.514,-0.62 -0.999,-1.225 -1.451,-1.802 -0.448,-0.608 -0.819,-1.27 -1.032,-1.942 -0.278,-0.788 -0.238,-1.622 -0.025,-2.115 0.273,-0.488 0.442,-0.63 0.452,-0.53 -0.006,0.009 -0.005,0.007 -0.005,0.008 0.217,-0.337 0.447,-0.538 0.653,-0.666 -0.047,-0.244 -0.089,-0.478 -0.126,-0.698 -0.559,-3.387 -2.675,-12.305 -3.651,-17.825 -0.976,-5.52 -1.667,-12.786 -2.149,-17.963 -0.481,-5.177 -1.948,-15.457 -2.58,-21.471 -0.633,-6.013 -2.41,-17.467 -3.501,-21.322 -1.091,-3.855 -2.08,-12.96 -1.992,-17.459 0.089,-4.499 -1.545,-10.532 -2.406,-13.383 -0.86,-2.851 -2.038,-10.874 -2.765,-16.224 -0.729,-5.349 -2.025,-11.543 -4.287,-15.171 -2.264,-3.628 -4.478,-9.756 -4.478,-9.756 l 3.803,-2.675 c 0,0 -3.603,-3.238 -5.482,-5.192 -1.879,-1.954 -2.972,-5.725 -1.988,-9.206 0.985,-3.482 5.975,-11.468 7.178,-13.279 1.202,-1.81 2.645,-3.116 2.645,-3.116 0,0 -1.465,-1.821 -1.377,-3.132 0.087,-1.31 1.668,-2.218 1.683,-2.968 0.015,-0.75 0.546,-2.364 1.121,-2.978 0.574,-0.614 1.522,-1.096 1.661,-1.843 0.14,-0.747 -0.029,-1.688 1.054,-2.73 1.083,-1.041 2.72,-1.634 2.854,-2.07 0.133,-0.434 0.596,-1.738 1.611,-2.468 1.015,-0.731 1.696,-0.467 2.052,-2.648 0.355,-2.181 1.44,-6.536 3.57,-6.744 2.13,-0.209 3.526,1.882 4.091,1.768 0.565,-0.115 1.669,-2.218 3.144,-4.127 1.475,-1.91 3.804,-2.739 4.932,-2.842 1.127,-0.103 1.624,0.032 1.624,0.032 0,0 2.027,-7.774 2.928,-12.258 0.9,-4.483 1.804,-9.153 2.602,-14.764 0.797,-5.611 1.725,-8.28 0.993,-9.232 -0.731,-0.952 -1.134,-2.711 -0.109,-4.003 1.025,-1.293 1.575,-3.845 1.417,-5.348 -0.158,-1.503 -1.233,-4.025 -2.323,-5.86 -1.089,-1.834 -1.651,-5.095 -0.925,-7.019 0.725,-1.923 2.015,-3.961 1.053,-5.918 -0.962,-1.956 -2.121,-3.417 -1.844,-4.786 0.276,-1.37 -0.157,-1.567 -1.222,-4.651 -1.065,-3.084 -2.173,-16.733 -1.824,-21.79 0.349,-5.056 1.125,-12.793 0.821,-13.236 -0.303,-0.443 -0.914,-1.205 -2.874,-0.056 -1.961,1.149 -7.905,4.658 -13.645,4.109 -5.74,-0.55 -8.71,-5.359 -12.666,-7.624 -3.956,-2.266 -9.833,-5.444 -12.569,-6.185 -2.736,-0.741 -4.48,-1.088 -4.48,-1.088 l 0.436,-3.055 c 0,0 5.539,1.234 9.773,2.067 4.234,0.833 8.092,1.784 9.684,0.314 1.591,-1.468 1.397,-4.348 -0.495,-6.698 -1.891,-2.35 -6.766,-8.821 -9.394,-11.873 -2.629,-3.053 -4.073,-5.894 -4.169,-7.396 -0.096,-1.502 0.177,-8.999 1.292,-14.915 1.116,-5.917 6.67,-18.185 7.567,-19.356 0.899,-1.17 3.314,0.003 4.349,1.398 1.035,1.396 1.463,5.092 1.125,9.586 -0.338,4.495 -0.96,10.734 -0.105,11.813 0.853,1.08 6.508,6.004 10.405,8.142 3.896,2.14 8.317,6.227 10.844,8.089 2.526,1.863 5.618,3.611 5.618,3.611 0,0 0.204,-4.059 0.437,-6.43 0.235,-2.371 0.264,-7.059 0.264,-7.059 l -0.75,-0.014 0.217,-4.685 2.199,-0.582 c 0,0 -0.73,-4.265 -0.903,-4.956 -0.174,-0.691 1.593,-1.594 1.881,-0.338 0.288,1.256 1.227,4.4 1.227,4.4 0,0 2.153,-1.396 4.103,-1.983 1.949,-0.587 3.078,-0.753 3.078,-0.753 0,0 1.141,-4.041 1.652,-7.781 0.511,-3.741 0.686,-9.488 0.604,-11.74 -0.081,-2.252 -0.686,-9.641 -0.686,-9.641 0,0 -1.28,-1.65 -1.724,-4.534 -0.444,-2.885 0.035,-5.001 0.862,-8.923 0.827,-3.922 1.924,-8.901 2.003,-12.9 0.078,-3.999 -0.102,-10.754 -0.072,-12.317 0.031,-1.562 -0.253,-3.068 2.716,-4.634 2.969,-1.568 6.314,-3.191 12.783,-4.751 6.47,-1.562 9.288,-1.882 10.697,-0.354 1.408,1.527 3.394,5.442 2.749,9.681 -0.646,4.238 -3.744,9.178 -4.345,11.167 -0.602,1.988 -0.806,12.424 -1.433,15.724 -0.627,3.301 -2.142,7.273 -2.456,10.517 -0.313,3.244 -0.654,7.864 -1.52,10.598 -0.867,2.733 -3.28,7.875 -3.732,11.803 -0.452,3.93 -0.343,7.995 -0.343,7.995 0,0 1.173,0.711 2.593,1.614 1.42,0.903 1.639,2.533 1.492,3.592 -0.145,1.06 -0.549,2.552 -0.549,2.552 0,0 -0.051,5.813 -0.286,11.435 -0.236,5.621 0.192,18.944 0.192,18.944 0,0 4.548,3.965 7.01,5.951 2.462,1.987 6.018,5.494 9.16,7.868 3.141,2.374 10.508,9.27 14.144,11.905 3.637,2.634 8.197,6.036 15.625,9.745 7.429,3.708 13.995,6.774 19.626,9.761 5.63,2.985 10.733,4.147 12.94,6.379 2.207,2.231 5.01,5.974 4.446,12.402"
             style="fill:#1d1d1b;fill-opacity:1;fill-rule:nonzero;stroke:none"
             id="path72"
             inkscape:connector-curvature="0" /></g><g
           id="g74"
           transform="translate(641.7803,599.4341)"><path
             d="M 0,0 0,0 C 0.012,0.002 0.023,0.006 0.035,0.009 L 0,0 Z"
             style="fill:#1d1d1b;fill-opacity:1;fill-rule:nonzero;stroke:none"
             id="path76"
             inkscape:connector-curvature="0" /></g><g
           id="g78"
           transform="translate(192.4585,417.5815)" /><g
           id="g82"
           transform="translate(283.3926,20.1758)" /><g
           id="g86"
           transform="translate(294.8555,20.9922)" /><g
           id="g90"
           transform="translate(311.7412,18.2773)" /><g
           id="g94"
           transform="translate(315.6729,23.957)" /><g
           id="g98"
           transform="translate(319.5186,20.2422)" /><g
           id="g102"
           transform="translate(331.1523,23.9941)" /><g
           id="g106"
           transform="translate(341.8555,20.9922)" /><g
           id="g110"
           transform="translate(352.3965,20.1758)" /><g
           id="g114"
           transform="translate(368.2187,20.0996)" /><g
           id="g118"
           transform="translate(379.1406,14.5625)" /><g
           id="g122"
           transform="translate(416.7031,25.2051)" /><g
           id="g126"
           transform="translate(425.1934,18.6309)" /><g
           id="g130"
           transform="translate(432.0391,20.998)" /><g
           id="g134"
           transform="translate(442.8281,20.998)" /><g
           id="g138"
           transform="translate(458.6641,20.207)" /><g
           id="g142"
           transform="translate(465.1641,23.9629)" /><g
           id="g146"
           transform="translate(473.5234,16.0723)" /><g
           id="g150"
           transform="translate(479.1602,14.8887)" /><g
           id="g154"
           transform="translate(492.0586,18.0977)" /><g
           id="g158"
           transform="translate(500.6445,20.1582)" /><g
           id="g162"
           transform="translate(513.1406,19.9688)" /><g
           id="g166"
           transform="translate(392.4355,20.7871)"><path
             d="M 0,0 C -0.002,0.004 -0.002,0.01 -0.002,0.018 -0.002,0.01 -0.002,0.004 0,0"
             style="fill:#1d1d1b;fill-opacity:1;fill-rule:nonzero;stroke:none"
             id="path168"
             inkscape:connector-curvature="0" /></g><g
           id="g170"
           transform="translate(392.5664,19.957)"><path
             d="M 0,0 0.003,0 C -0.047,0.236 -0.086,0.471 -0.115,0.703 -0.086,0.469 -0.047,0.234 0,0"
             style="fill:#1d1d1b;fill-opacity:1;fill-rule:nonzero;stroke:none"
             id="path172"
             inkscape:connector-curvature="0" /></g><g
           id="g174"
           transform="translate(393.4248,17.5508)"><path
             d="M 0,0 C -0.006,0.01 -0.011,0.021 -0.017,0.033 -0.011,0.021 -0.006,0.01 0,0"
             style="fill:#1d1d1b;fill-opacity:1;fill-rule:nonzero;stroke:none"
             id="path176"
             inkscape:connector-curvature="0" /></g><g
           id="g178"
           transform="translate(393.3428,17.7109)"><path
             d="M 0,0 C -0.022,0.045 -0.044,0.09 -0.065,0.135 -0.044,0.088 -0.022,0.045 0,0"
             style="fill:#1d1d1b;fill-opacity:1;fill-rule:nonzero;stroke:none"
             id="path180"
             inkscape:connector-curvature="0" /></g><g
           id="g182"
           transform="translate(392.8076,19.0313)" /><g
           id="g186"
           transform="translate(402.4727,30.7227)" /><g
           id="g190"
           transform="translate(393.4053,26.8652)" /><g
           id="g194"
           transform="translate(411.6719,29.8398)" /><g
           id="g198"
           transform="translate(409.0156,20.6367)" /><g
           id="g202"
           transform="translate(397.8857,27.2676)" /></g></g></g></svg>